<svg width="52" height="68" viewBox="0 0 52 68" fill="none" xmlns="http://www.w3.org/2000/svg">
<path d="M29.5 64C29.5 65.933 27.933 67.5 26 67.5C24.067 67.5 22.5 65.933 22.5 64H29.5ZM23.5251 1.52512C24.892 0.158287 27.108 0.158287 28.4749 1.52512L50.7487 23.799C52.1156 25.1658 52.1156 27.3819 50.7487 28.7487C49.3819 30.1156 47.1658 30.1156 45.799 28.7487L26 8.94974L6.20101 28.7487C4.83418 30.1156 2.6181 30.1156 1.25126 28.7487C-0.115572 27.3819 -0.115572 25.1658 1.25126 23.799L23.5251 1.52512ZM22.5 64L22.5 4H29.5L29.5 64H22.5Z" fill="#00838F"/>
</svg>
