<svg width="278" height="137" viewBox="0 0 278 137" fill="none" xmlns="http://www.w3.org/2000/svg">
<path d="M1 7.99707L18 44.4971L23.5 60.9971L27 66.9971L34 84.4971L49 94.4971L73 100.497H82L89.5 102.497L97.5 104.997H101L104 108.997H107L118.5 117.497L109.5 131.997H124.5L131.5 134.997L137.5 127.997H144.5L133 124.497H131.5L133 120.497L126.5 111.997V102.497L129 96.9971V88.9971L143.5 83.4971L154.5 71.9971L158.5 59.4971L161.5 56.4971L171.5 53.4971L181 46.9971L220.5 43.9971L234.5 38.9971L246 37.4971L257 31.4971L269.5 25.9971" stroke="#00838F" stroke-width="2"/>
<path d="M269.5 26.497L273.5 24.997L277.5 22.997H257.5C256.179 20.879 257.06 19.1161 260 15.497L267.5 7.99704C269.322 6.35681 270.602 5.3875 273.5 3.49704L269.5 1.99704H265L252 7.99704L245 10.997C240.922 9.65579 237.981 9.53908 231 10.997C223.985 15.362 221.444 18.0199 218.5 22.997L214.5 24.997H203C192.533 22.7995 188.5 24.997 176 22.997C163.5 20.997 159.5 13.997 159.5 13.997C153.091 9.70256 136.5 4.99704 136.5 4.99704C120.318 1.03587 111.459 0.358548 96 1.49704C80.5414 2.63554 87 7.99753 82.5 6.49704C78 4.99656 64.3044 4.5411 56 6.49704L39.5 9.99704C31.8685 12.9462 29.0023 14.5808 25 17.497L6.5 4.99704L5 9.99704L1.5 8.49704M110 89.497L106 97.497L120 108.497V99.997L117.5 89.497H110Z" stroke="#00838F" stroke-width="2"/>
</svg>
