<svg width="70" height="70" viewBox="0 0 70 70" fill="none" xmlns="http://www.w3.org/2000/svg">
<g opacity="0.9">
<path fill-rule="evenodd" clip-rule="evenodd" d="M35.0001 53.5871C45.5437 53.5871 54.091 45.1886 54.091 34.8287C54.091 24.4687 45.5437 16.0703 35.0001 16.0703C24.4565 16.0703 15.9092 24.4687 15.9092 34.8287C15.9092 45.1886 24.4565 53.5871 35.0001 53.5871ZM35.0001 47.3343C42.029 47.3343 47.7274 41.7352 47.7274 34.8287C47.7274 27.922 42.029 22.3231 35.0001 22.3231C27.971 22.3231 22.2728 27.922 22.2728 34.8287C22.2728 41.7352 27.971 47.3343 35.0001 47.3343Z" fill="#E0F2F1"/>
<path d="M54.091 12.9439C52.3337 12.9439 50.9092 14.3437 50.9092 16.0703C50.9092 17.797 52.3337 19.1967 54.091 19.1967C55.8483 19.1967 57.2728 17.797 57.2728 16.0703C57.2728 14.3437 55.8483 12.9439 54.091 12.9439Z" fill="#E0F2F1"/>
<path fill-rule="evenodd" clip-rule="evenodd" d="M2.08078 10.6805C0 14.6932 0 19.946 0 30.4517V39.2056C0 49.7113 0 54.9643 2.08078 58.9767C3.91109 62.5064 6.83162 65.3761 10.4238 67.1744C14.5076 69.2191 19.8536 69.2191 30.5455 69.2191H39.4545C50.1464 69.2191 55.4925 69.2191 59.576 67.1744C63.1683 65.3761 66.0889 62.5064 67.9191 58.9767C70 54.9643 70 49.7113 70 39.2056V30.4517C70 19.946 70 14.6932 67.9191 10.6805C66.0889 7.15087 63.1683 4.28121 59.576 2.48278C55.4925 0.438232 50.1464 0.438232 39.4545 0.438232H30.5455C19.8536 0.438232 14.5076 0.438232 10.4238 2.48278C6.83162 4.28121 3.91109 7.15087 2.08078 10.6805ZM39.4545 6.69104H30.5455C25.0945 6.69104 21.389 6.69592 18.5248 6.92583C15.7349 7.14981 14.3081 7.55577 13.3129 8.05406C10.9181 9.25303 8.97104 11.1661 7.75081 13.5192C7.2437 14.4972 6.83054 15.899 6.60259 18.6404C6.3686 21.4547 6.36364 25.0957 6.36364 30.4517V39.2056C6.36364 44.5618 6.3686 48.2025 6.60259 51.0169C6.83054 53.7584 7.2437 55.1603 7.75081 56.1382C8.97104 58.4912 10.9181 60.4042 13.3129 61.6032C14.3081 62.1015 15.7349 62.5077 18.5248 62.7315C21.389 62.9613 25.0945 62.9663 30.5455 62.9663H39.4545C44.9056 62.9663 48.6109 62.9613 51.4751 62.7315C54.2653 62.5077 55.692 62.1015 56.6873 61.6032C59.0819 60.4042 61.0289 58.4912 62.2491 56.1382C62.7563 55.1603 63.1696 53.7584 63.3974 51.0169C63.6313 48.2025 63.6364 44.5618 63.6364 39.2056V30.4517C63.6364 25.0957 63.6313 21.4547 63.3974 18.6404C63.1696 15.899 62.7563 14.4972 62.2491 13.5192C61.0289 11.1661 59.0819 9.25303 56.6873 8.05406C55.692 7.55577 54.2653 7.14981 51.4751 6.92583C48.6109 6.69592 44.9056 6.69104 39.4545 6.69104Z" fill="#E0F2F1"/>
</g>
</svg>
