<svg width="60" height="65" viewBox="0 0 60 65" fill="none" xmlns="http://www.w3.org/2000/svg">
<path fill-rule="evenodd" clip-rule="evenodd" d="M30.8148 57.4765C30.3078 57.814 29.8351 58.1202 29.4033 58.3949C28.9425 58.1177 28.4315 57.7989 27.8774 57.4395C25.2645 55.7438 21.8757 53.2546 18.5384 50.15C11.693 43.7817 5.9375 35.6528 5.9375 26.9817C5.9375 15.0843 16.5707 5.4395 29.6875 5.4395C42.8042 5.4395 53.4375 15.0843 53.4375 26.9817C53.4375 35.5598 47.4283 43.6654 40.3326 50.1012C36.8901 53.2241 33.4257 55.7402 30.8148 57.4765ZM59.375 26.9817C59.375 48.5239 29.6875 64.6806 29.6875 64.6806C28.2031 64.6806 0 48.5239 0 26.9817C0 12.1099 13.2915 0.0539551 29.6875 0.0539551C46.0833 0.0539551 59.375 12.1099 59.375 26.9817ZM35.625 26.9817C35.625 29.956 32.9666 32.3673 29.6875 32.3673C26.4084 32.3673 23.75 29.956 23.75 26.9817C23.75 24.0073 26.4084 21.5962 29.6875 21.5962C32.9666 21.5962 35.625 24.0073 35.625 26.9817ZM41.5625 26.9817C41.5625 32.9306 36.2461 37.7528 29.6875 37.7528C23.1289 37.7528 17.8125 32.9306 17.8125 26.9817C17.8125 21.033 23.1289 16.2106 29.6875 16.2106C36.2461 16.2106 41.5625 21.033 41.5625 26.9817Z" fill="#E0F2F1" fill-opacity="0.9"/>
</svg>
