<svg width="98" height="70" viewBox="0 0 98 70" fill="none" xmlns="http://www.w3.org/2000/svg">
<path d="M96.691 67.0942L84.921 53.3022C84.845 53.2122 84.758 53.1372 84.667 53.0702C84.609 52.9062 84.531 52.7482 84.416 52.6092L49.95 11.2542V1.93018C49.95 1.10118 49.279 0.430176 48.45 0.430176C47.621 0.430176 46.95 1.10118 46.95 1.93018V11.2382L12.477 52.6082C12.342 52.7702 12.26 52.9592 12.203 53.1552L1.27904 66.8082C0.761043 67.4552 0.866043 68.3992 1.51304 68.9162C1.78904 69.1382 2.12004 69.2452 2.44904 69.2452C2.88904 69.2452 3.32504 69.0532 3.62104 68.6832L13.4 56.4632L19.249 68.1682C19.503 68.6762 20.022 68.9972 20.591 68.9972H76.296C76.864 68.9972 77.383 68.6762 77.638 68.1682L83.561 56.3272L94.41 69.0412C94.706 69.3892 95.128 69.5672 95.552 69.5672C95.896 69.5672 96.242 69.4492 96.525 69.2082C97.154 68.6712 97.229 67.7242 96.691 67.0942ZM60.157 65.9972H36.73L48.444 36.7212L60.157 65.9972ZM52.552 38.9132L67.504 53.8652L62.525 63.8372L52.552 38.9132ZM34.362 63.8382L29.378 53.8652L44.337 38.9102L34.362 63.8382ZM15.41 53.7762L46.944 15.9332V32.0622L26.492 52.5082C26.035 52.9642 25.922 53.6612 26.211 54.2392L32.087 65.9972H21.518L15.41 53.7762ZM75.369 65.9972H64.798L70.67 54.2382C70.958 53.6612 70.845 52.9642 70.389 52.5082L49.944 32.0622V15.9322L81.484 53.7742L75.369 65.9972Z" fill="#00838F"/>
</svg>
