<svg width="62" height="92" viewBox="0 0 62 92" fill="none" xmlns="http://www.w3.org/2000/svg">
<path d="M31.3279 0.953125C14.4799 0.953125 0.772949 14.6601 0.772949 31.5081C0.772949 47.1121 12.0879 60.3701 26.5329 61.6911C27.3969 61.7711 28.5699 61.8151 29.8289 61.8301V89.5451C29.8289 90.3731 30.4999 91.0451 31.3289 91.0451C32.1569 91.0451 32.8289 90.3731 32.8289 89.5451V61.8161C34.1609 61.7881 35.407 61.7341 36.31 61.6591C50.654 60.4291 61.8899 47.1851 61.8899 31.5091C61.8909 14.6601 48.1809 0.953125 31.3279 0.953125ZM36.06 58.6691C35.225 58.7381 34.0689 58.7891 32.8299 58.8151V52.7031L44.7049 39.5511C45.2609 38.9361 45.2119 37.9881 44.5969 37.4321C43.9839 36.8761 43.034 36.9251 42.479 37.5401L32.8309 48.2271V26.3571C32.8309 25.5281 32.1589 24.8571 31.3309 24.8571C30.5019 24.8571 29.8309 25.5281 29.8309 26.3571V58.8301C28.6629 58.8151 27.5859 58.7751 26.8099 58.7031L26.8079 58.7021C13.8919 57.5221 3.77495 45.5771 3.77495 31.5081C3.77495 16.3141 16.136 3.95312 31.33 3.95312C46.528 3.95312 58.8919 16.3141 58.8919 31.5081C58.8909 45.6411 48.859 57.5721 36.06 58.6691Z" fill="#00838F"/>
</svg>
